<?xml version="1.0" standalone="no"?><!DOCTYPE svg PUBLIC "-//W3C//DTD SVG 1.1//EN" "http://www.w3.org/Graphics/SVG/1.1/DTD/svg11.dtd"><svg t="1657230311050" class="icon" viewBox="0 0 1024 1024" version="1.1" xmlns="http://www.w3.org/2000/svg" p-id="3259" xmlns:xlink="http://www.w3.org/1999/xlink" width="200" height="200"><defs><style type="text/css"></style></defs><path d="M392.709169 869.930856a13.927912 13.927912 0 0 1-11.830995-6.549795l-106.077592-169.647559c-4.081207-6.526245-2.097941-15.125858 4.428304-19.207065 6.526245-4.082231 15.124834-2.098965 19.207065 4.428304l106.077591 169.64756c4.081207 6.526245 2.097941 15.125858-4.428304 19.207064a13.875694 13.875694 0 0 1-7.376069 2.121491z" fill="#228A31" p-id="3260"></path><path d="M122.851905 870.768394c-5.424544 0-10.581855-3.185307-12.835427-8.494153-3.008175-7.085286 0.296927-15.268178 7.381189-18.277377a34.885821 34.885821 0 0 1 13.703682-2.780872h763.416065c7.69757 0 13.937127 6.239557 13.937127 13.937127s-6.240581 13.937127-13.937127 13.937127H131.101349a7.14672 7.14672 0 0 0-2.809542 0.565185 13.871598 13.871598 0 0 1-5.439902 1.112963z" fill="#228A31" p-id="3261"></path><path d="M628.553986 869.929832c-2.523877 0-5.077447-0.684979-7.375046-2.120467-6.527269-4.080183-8.511559-12.679796-4.430352-19.207064L722.794439 678.953717c4.079159-6.527269 12.679796-8.510535 19.207065-4.430352 6.527269 4.080183 8.511559 12.679796 4.430352 19.207065l-106.045851 169.64756a13.928936 13.928936 0 0 1-11.832019 6.551842zM746.091926 647.880845H279.560625c-54.474795 0-98.793671-44.304542-98.793671-98.76193v-169.64756c0-54.457389 44.318876-98.761931 98.793671-98.76193h466.531301c54.458413 0 98.761931 44.304542 98.76193 98.76193v169.64756c0 54.457389-44.304542 98.761931-98.76193 98.76193zM279.560625 308.584703c-39.104228 0-70.917369 31.79983-70.917369 70.885628v169.64756c0 39.086822 31.813141 70.886653 70.917369 70.886652h466.531301c39.086822 0 70.886653-31.800854 70.886652-70.886652v-169.64756c0-39.086822-31.800854-70.885629-70.886652-70.885628H279.560625zM852.106036 181.348521H173.51375c-7.69757 0-13.938151-6.240581-13.93815-13.938151s6.240581-13.938151 13.93815-13.938151h678.592286c7.698594 0 13.937127 6.240581 13.937127 13.938151s-6.238533 13.938151-13.937127 13.938151z" fill="#228A31" p-id="3262"></path></svg>